<?xml version="1.0" encoding="UTF-8"?>
<svg id="Layer_1" data-name="Layer 1" xmlns="http://www.w3.org/2000/svg" viewBox="0 0 59.75 42.64">
  <defs>
    <style>
      .cls-1 {
        fill: #a6a8ab;
        stroke: #fff;
        stroke-miterlimit: 10;
        stroke-width: 1.17px;
      }
    </style>
  </defs>
  <path class="cls-1" d="m57.83,2.03c-.49.46-.98.91-1.46,1.37-3.37,3.22-6.75,6.45-10.12,9.67-2.26,2.16-4.49,4.35-6.77,6.48-1.9,1.77-3.86,3.5-5.83,5.2-.55.48-1.23.82-1.87,1.18-1.39.78-2.76.64-4.11-.14-1.2-.69-2.29-1.51-3.29-2.45-2.75-2.57-5.47-5.17-8.21-7.76-3.51-3.33-7.02-6.66-10.52-10-1.23-1.17-2.47-2.35-3.73-3.55.57-.65,1.28-1.08,2.11-1.28.44-.11.9-.16,1.36-.16,16.34,0,32.68,0,49.02,0,1.12,0,2.14.31,3.02,1.02.1.08.19.16.28.24.04.04.07.1.12.17Z"/>
  <path class="cls-1" d="m1.93,40.62c6.3-6.01,12.58-12,18.88-18,.63.57,1.22,1.17,1.86,1.7,1.07.89,2.14,1.79,3.28,2.59,2.57,1.8,5.19,1.77,7.8.04,1.89-1.24,3.52-2.79,5.17-4.35,6.29,5.99,12.58,12,18.9,18.03-.09.09-.17.2-.26.28-.87.74-1.88,1.14-3.02,1.14-16.45,0-32.9,0-49.36,0-1.12,0-2.13-.39-2.99-1.12-.07-.06-.13-.12-.19-.18-.03-.04-.05-.08-.09-.13Z"/>
  <path class="cls-1" d="m.89,3.61c6.21,5.92,12.38,11.79,18.6,17.71-6.19,5.9-12.36,11.78-18.6,17.73-.09-.33-.2-.59-.22-.85-.05-.82-.09-1.65-.09-2.48,0-10.02,0-20.04,0-30.06,0-.66,0-1.33.3-2.05Z"/>
  <path class="cls-1" d="m40.27,21.32c6.22-5.93,12.37-11.8,18.62-17.76.09.48.22.88.24,1.28.04.91.04,1.83.04,2.74,0,9.76,0,19.52,0,29.28,0,.49-.04.99-.09,1.47-.03.23-.14.45-.23.7-6.2-5.92-12.35-11.78-18.57-17.71Z"/>
</svg>