<?xml version="1.0" encoding="UTF-8"?>
<svg id="Layer_1" data-name="Layer 1" xmlns="http://www.w3.org/2000/svg" viewBox="0 0 69.29 52.36">
  <defs>
    <style>
      .cls-1 {
        fill: #808184;
        stroke-width: 0px;
      }
    </style>
  </defs>
  <path class="cls-1" d="m15.16,38.8c1.57-3.79,3.68-7.12,6.09-10.25,4.45-5.77,9.78-10.61,15.77-14.73C45.64,7.9,55.09,3.82,65.08.91c.96-.28,1.94-.52,2.9-.8.54-.16,1.08-.23,1.28.42.18.62-.3.91-.79,1.13-2.15.96-4.34,1.83-6.44,2.89-6.54,3.29-12.54,7.4-18.1,12.15-7.82,6.68-14.4,14.41-19.57,23.3-1.89,3.24-3.49,6.65-5.15,10.02-.7,1.42-1.69,2.29-3.27,2.34-1.51.05-2.61-.63-3.38-1.96-2.97-5.14-5.98-10.25-9.49-15.04-.7-.95-1.51-1.83-2.33-2.69-1.04-1.09-.97-2.57.27-3.46,1.23-.89,2.58-.97,4-.47,1.51.54,2.73,1.51,3.88,2.58,2.18,2.03,4.02,4.36,5.77,6.77.15.21.3.41.53.71Z"/>
</svg>